# xmcd
#
# Track frame offsets:
#	150
#	11867
#	21005
#	46117
#	55805
#	64120
#	76062
#	87512
#	100435
#	113252
#	126592
#	138425
#	151732
#	161715
#
# Disc length: 2379 seconds
#
# Revision: 0
# Processed by: cddbd v1.5.2PL0 Copyright (c) Steve Scherf et al.
# Submitted via: dBpowerAMP V4.0
#
DISCID=ad09490e
DTITLE=Kenny Baker - Cotton Baggin' 2000
DYEAR=2000
DGENRE=Bluegrass
TTITLE0=Denver Belle
TTITLE1=Bean Blossom
TTITLE2=Paris Waltz
TTITLE3=Pretty Birdie
TTITLE4=Candy Gal
TTITLE5=Cotton Baggin'
TTITLE6=Cross-eyed Fiddler
TTITLE7=Kiss Me Waltz
TTITLE8=Dead March
TTITLE9=Blue Mountain Waltz
TTITLE10=Road to Columbus
TTITLE11=Santa Claus
TTITLE12=Shake or Bake
TTITLE13=Sweet Bunch of Daisies
EXTD=Rich Price
EXTT0=
EXTT1=
EXTT2=
EXTT3=
EXTT4=
EXTT5=
EXTT6=
EXTT7=
EXTT8=
EXTT9=
EXTT10=
EXTT11=
EXTT12=
EXTT13=
PLAYORDER=
